#!OML:ASF E:\emotionWalksFemale\Project 1\Capture day 1\Session 1\Female1.ASF
:FULLY-SPECIFIED
:DEGREES
335
root 8.68645 14.2484 22.7377 -170.975 -12.6898 -178.494
lowerback 9.74496 2.18733 2.69806
upperback -3.96334 3.33474 0.871967
thorax -9.61451 1.45117 -1.17397
lowerneck -15.163 1.08047 -1.27309
upperneck 1.5496 1.56414 -2.17382
head 3.18878 0.561859 -0.381842
rclavicle -2.65874e-014 7.15625e-015
rhumerus -39.2079 20.5955 -91.1412
rradius 29.9101
rwrist 40.7228
rhand 2.50598 -56.0669
rfingers 7.12502
rthumb -152.012 -264
lclavicle -2.65874e-014 7.15625e-015
lhumerus -44.9381 1.38962 84.4739
lradius 31.7208
lwrist -16.2235
lhand -11.0582 -41.2418
lfingers 7.12502
lthumb 14.9645 -11.8025
rfemur -28.0879 -3.54612 29.9216
rtibia 54.3842
rfoot -33.5243 -28.43
rtoes 4.71483
lfemur -35.2198 -12.9265 -19.8303
ltibia 58.1568
lfoot -34.0585 2.53795
ltoes -26.7661
336
root 8.70135 14.3776 22.683 -171.241 -14.2774 -178.423
lowerback 9.28678 2.28999 2.5947
upperback -4.10084 3.4459 0.973225
thorax -9.50384 1.51338 -1.00896
lowerneck -15.0887 1.46829 -0.863637
upperneck 2.13058 2.07906 -2.57976
head 3.39366 0.809254 -0.550388
rclavicle 6.40335e-014 3.10104e-014
rhumerus -40.2615 21.342 -91.7269
rradius 30.538
rwrist 40.1251
rhand 2.47482 -56.5363
rfingers 7.12502
rthumb -152.041 -264.474
lclavicle 6.40335e-014 3.10104e-014
lhumerus -45.4651 1.15264 84.5974
lradius 31.5165
lwrist -17.1628
lhand -11.1513 -41.2037
lfingers 7.12502
lthumb 14.8748 -11.7577
rfemur -26.1973 -5.19118 30.0923
rtibia 51.5306
rfoot -32.9171 -27.5437
rtoes 5.96688
lfemur -33.8378 -13.4301 -19.5815
ltibia 55.8223
lfoot -32.8874 0.949259
ltoes -24.9888
337
root 8.71215 14.5286 22.6108 -171.745 -15.8457 -178.324
lowerback 8.97871 2.43797 2.60849
upperback -4.19069 3.63425 0.989251
thorax -9.41513 1.60396 -1.01812
lowerneck -15.2541 1.8244 -0.561788
upperneck 3.0162 2.57021 -2.63508
head 3.7519 1.05806 -0.582281
rclavicle 6.65432e-014 -1.98785e-014
rhumerus -41.8108 21.5671 -92.4121
rradius 31.4531
rwrist 39.7721
rhand 3.03927 -57.2155
rfingers 7.12502
rthumb -151.502 -265.064
lclavicle 6.65432e-014 -1.98785e-014
lhumerus -45.9737 0.820455 84.659
lradius 31.3577
lwrist -18.157
lhand -10.9432 -41.1423
lfingers 7.12502
lthumb 15.0752 -11.7112
rfemur -23.8158 -6.81876 30.2176
rtibia 48.2755
rfoot -31.7433 -26.8381
rtoes 6.77149
lfemur -31.923 -13.8576 -19.3859
ltibia 53.1279
lfoot -31.5436 -0.473912
ltoes -24.0957
338
root 8.71647 14.6934 22.525 -172.451 -17.2762 -178.165
lowerback 8.60426 2.61661 2.61096
upperback -4.26498 3.85885 1.00072
thorax -9.26942 1.71426 -1.02628
lowerneck -15.3059 2.20615 -0.348909
upperneck 3.99818 3.09368 -2.42295
head 4.12146 1.33739 -0.502529
rclavicle 4.15957e-014 -5.1684e-015
rhumerus -43.7467 21.9134 -93.4129
rradius 32.4275
rwrist 39.2291
rhand 3.57716 -57.5861
rfingers 7.12502
rthumb -150.988 -265.348
lclavicle 4.15957e-014 -5.1684e-015
lhumerus -46.6239 0.595083 84.6323
lradius 31.1678
lwrist -19.2978
lhand -10.5401 -40.9301
lfingers 7.12502
lthumb 15.4635 -11.5286
rfemur -21.0624 -8.23979 30.3123
rtibia 44.6716
rfoot -29.5541 -26.533
rtoes 5.50994
lfemur -29.5743 -14.1353 -19.2258
ltibia 50.1233
lfoot -29.9098 -2.09831
ltoes -22.1789
339
root 8.72056 14.8628 22.4402 -173.095 -18.7812 -178.023
lowerback 8.12938 2.79506 2.48882
upperback -4.40979 4.06427 1.0243
thorax -9.15175 1.8214 -0.943417
lowerneck -15.1741 2.56019 -0.391742
upperneck 5.2909 3.59998 -2.00219
head 4.05324 1.6105 -0.279603
rclavicle 9.17764e-014 2.66371e-014
rhumerus -45.6168 22.0542 -94.3435
rradius 33.1525
rwrist 39.2625
rhand 4.92551 -57.2626
rfingers 7.12502
rthumb -149.701 -264.795
lclavicle 9.17764e-014 2.66371e-014
lhumerus -47.3407 0.401095 84.5638
lradius 30.9222
lwrist -20.556
lhand -10.0743 -40.7775
lfingers 7.12502
lthumb 15.9121 -11.4112
rfemur -18.2632 -9.30657 30.3983
rtibia 40.8536
rfoot -26.6747 -26.6
rtoes 2.97578
lfemur -27.2324 -14.3334 -19.0701
ltibia 46.8916
lfoot -27.7979 -4.33056
ltoes -17.1626
340
root 8.72673 15.0418 22.3582 -173.607 -20.4422 -177.953
lowerback 7.59228 2.92771 2.25709
upperback -4.5978 4.19275 1.03567
thorax -9.05431 1.89641 -0.796682
lowerneck -14.3797 3.09683 0.0912328
upperneck 5.75408 4.24997 -1.90301
head 4.08283 1.96064 -0.281461
rclavicle 9.02172e-014 1.07344e-014
rhumerus -47.2407 22.0007 -95.1552
rradius 33.5245
rwrist 39.674
rhand 6.46361 -56.6321
rfingers 7.12502
rthumb -148.235 -263.885
lclavicle 9.02172e-014 1.07344e-014
lhumerus -48.0394 0.168183 84.533
lradius 30.7084
lwrist -21.5962
lhand -9.68942 -40.4576
lfingers 7.12502
lthumb 16.2827 -11.1213
rfemur -15.5068 -10.0168 30.4507
rtibia 37.0009
rfoot -23.7689 -26.6282
rtoes 2.28517
lfemur -24.9733 -14.5685 -18.9386
ltibia 43.4946
lfoot -25.1416 -6.45849
ltoes -11.6551
341
root 8.73591 15.2393 22.2781 -173.958 -22.2666 -178.015
lowerback 6.99046 2.96143 1.93935
upperback -4.79923 4.17261 0.955216
thorax -8.93598 1.90219 -0.673303
lowerneck -13.942 3.65521 0.591672
upperneck 6.57082 4.92082 -1.6493
head 4.27641 2.3247 -0.229247
rclavicle -1.60084e-014 -2.46493e-014
rhumerus -48.666 21.984 -96.1952
rradius 33.5052
rwrist 39.3693
rhand 5.99999 -56.3283
rfingers 7.12502
rthumb -148.677 -263.668
lclavicle -1.60084e-014 -2.46493e-014
lhumerus -48.7889 -0.229028 84.5121
lradius 30.6339
lwrist -22.2041
lhand -9.15772 -40.2634
lfingers 7.12502
lthumb 16.7946 -10.9698
rfemur -12.9675 -10.363 30.4216
rtibia 33.2699
rfoot -20.2892 -26.8654
rtoes 2.01009
lfemur -22.8612 -14.8907 -18.9009
ltibia 40.0466
lfoot -21.8579 -7.94503
ltoes -10.5381
342
root 8.74514 15.4528 22.2013 -174.262 -24.1857 -178.087
lowerback 6.5477 2.95572 1.74544
upperback -5.03269 4.11431 0.787486
thorax -8.93122 1.87617 -0.715598
lowerneck -13.3355 4.25832 1.34313
upperneck 7.02992 5.62327 -1.68884
head 4.34993 2.69471 -0.311641
rclavicle -9.78393e-015 -1.33186e-014
rhumerus -49.7995 21.4741 -97.0561
rradius 33.1976
rwrist 39.0516
rhand 5.55143 -56.1848
rfingers 7.12502
rthumb -149.104 -263.606
lclavicle -9.78393e-015 -1.33186e-014
lhumerus -49.4915 -0.759368 84.4211
lradius 30.6012
lwrist -22.6201
lhand -8.21241 -40.2925
lfingers 7.12502
lthumb 17.7045 -11.0785
rfemur -10.6525 -10.0938 30.4077
rtibia 29.744
rfoot -16.0533 -27.6699
rtoes 1.415
lfemur -20.9362 -15.4713 -18.8558
ltibia 36.6562
lfoot -17.9205 -8.96471
ltoes -11.2976
343
root 8.74748 15.6738 22.1274 -174.62 -25.9683 -178.127
lowerback 6.20236 2.94949 1.63573
upperback -5.20266 4.07221 0.673657
thorax -8.9126 1.85558 -0.753984
lowerneck -12.9482 4.81718 1.74079
upperneck 7.5785 6.32035 -1.63852
head 4.47747 3.05438 -0.305465
rclavicle -2.77056e-015 -1.98785e-015
rhumerus -50.6293 20.7291 -97.4732
rradius 32.8043
rwrist 39.2416
rhand 6.70622 -55.748
rfingers 7.12502
rthumb -148.004 -262.955
lclavicle -2.77056e-015 -1.98785e-015
lhumerus -50.08 -1.04798 84.2873
lradius 30.57
lwrist -22.9363
lhand -7.13116 -40.0773
lfingers 7.12502
lthumb 18.7447 -10.9604
rfemur -8.4681 -9.04503 30.3654
rtibia 26.564
rfoot -12.0235 -28.7717
rtoes 2.68992
lfemur -19.0713 -16.4302 -18.8069
ltibia 33.4087
lfoot -13.3543 -9.57353
ltoes -9.21921
